<svg width="125" height="26" viewBox="0 0 125 26" fill="none" xmlns="http://www.w3.org/2000/svg">
<path d="M8.64624 5.04615L8.67696 2H4.98466V5.04615H2L2.00006 24H32.6681V5.04615H16.7693V9.00273H17.334C20.5118 9.00273 23.0879 11.5788 23.0879 14.7566C23.0879 17.9343 20.5118 20.5104 17.334 20.5104C14.1562 20.5104 11.5801 17.9343 11.5801 14.7566C11.5801 13.6201 11.9096 12.5606 12.4783 11.6683" stroke="#19725D" stroke-width="3" stroke-linecap="round"/>
<line x1="41.668" y1="1" x2="41.668" y2="25" stroke="#19725D" stroke-width="2" stroke-linecap="round"/>
<path d="M52.98 20.22C51.8213 20.22 50.934 19.89 50.318 19.23C49.7166 18.57 49.416 17.6387 49.416 16.436V8.164C49.416 6.96133 49.7166 6.03 50.318 5.37C50.934 4.71 51.8213 4.38 52.98 4.38C54.1386 4.38 55.0186 4.71 55.62 5.37C56.236 6.03 56.544 6.96133 56.544 8.164V9.792H54.256V8.01C54.256 7.05667 53.8526 6.58 53.046 6.58C52.2393 6.58 51.836 7.05667 51.836 8.01V16.612C51.836 17.5507 52.2393 18.02 53.046 18.02C53.8526 18.02 54.256 17.5507 54.256 16.612V14.258H56.544V16.436C56.544 17.6387 56.236 18.57 55.62 19.23C55.0186 19.89 54.1386 20.22 52.98 20.22ZM57.9918 4.6H60.4118V17.8H64.3938V20H57.9918V4.6ZM65.5543 4.6H67.9743V20H65.5543V4.6ZM73.1968 20.22C72.0381 20.22 71.1508 19.89 70.5348 19.23C69.9334 18.57 69.6328 17.6387 69.6328 16.436V8.164C69.6328 6.96133 69.9334 6.03 70.5348 5.37C71.1508 4.71 72.0381 4.38 73.1968 4.38C74.3554 4.38 75.2354 4.71 75.8368 5.37C76.4528 6.03 76.7608 6.96133 76.7608 8.164V9.792H74.4728V8.01C74.4728 7.05667 74.0694 6.58 73.2628 6.58C72.4561 6.58 72.0528 7.05667 72.0528 8.01V16.612C72.0528 17.5507 72.4561 18.02 73.2628 18.02C74.0694 18.02 74.4728 17.5507 74.4728 16.612V14.258H76.7608V16.436C76.7608 17.6387 76.4528 18.57 75.8368 19.23C75.2354 19.89 74.3554 20.22 73.1968 20.22ZM78.2086 4.6H80.6286V11.09L83.7086 4.6H86.1286L83.2466 10.254L86.1726 20H83.6426L81.5966 13.136L80.6286 15.094V20H78.2086V4.6ZM90.4063 20.22C89.2329 20.22 88.3383 19.89 87.7223 19.23C87.1063 18.5553 86.7983 17.5947 86.7983 16.348V8.252C86.7983 7.00533 87.1063 6.052 87.7223 5.392C88.3383 4.71733 89.2329 4.38 90.4063 4.38C91.5796 4.38 92.4743 4.71733 93.0903 5.392C93.7063 6.052 94.0143 7.00533 94.0143 8.252V9.572H91.7263V8.098C91.7263 7.086 91.3083 6.58 90.4723 6.58C89.6363 6.58 89.2183 7.086 89.2183 8.098V16.524C89.2183 17.5213 89.6363 18.02 90.4723 18.02C91.3083 18.02 91.7263 17.5213 91.7263 16.524V13.51H90.5163V11.31H94.0143V16.348C94.0143 17.5947 93.7063 18.5553 93.0903 19.23C92.4743 19.89 91.5796 20.22 90.4063 20.22ZM95.568 4.6H99.154C100.401 4.6 101.31 4.89333 101.882 5.48C102.454 6.052 102.74 6.93933 102.74 8.142V9.088C102.74 10.6867 102.212 11.6987 101.156 12.124V12.168C101.743 12.344 102.153 12.7033 102.388 13.246C102.637 13.7887 102.762 14.5147 102.762 15.424V18.13C102.762 18.57 102.777 18.9293 102.806 19.208C102.835 19.472 102.909 19.736 103.026 20H100.562C100.474 19.7507 100.415 19.516 100.386 19.296C100.357 19.076 100.342 18.68 100.342 18.108V15.292C100.342 14.588 100.225 14.0967 99.99 13.818C99.77 13.5393 99.3813 13.4 98.824 13.4H97.988V20H95.568V4.6ZM98.868 11.2C99.352 11.2 99.7113 11.0753 99.946 10.826C100.195 10.5767 100.32 10.1587 100.32 9.572V8.384C100.32 7.82667 100.217 7.42333 100.012 7.174C99.8213 6.92467 99.5133 6.8 99.088 6.8H97.988V11.2H98.868ZM106.311 4.6H109.589L112.097 20H109.677L109.237 16.942V16.986H106.487L106.047 20H103.803L106.311 4.6ZM108.951 14.896L107.873 7.284H107.829L106.773 14.896H108.951ZM113.271 4.6H116.725L118.265 15.622H118.309L119.849 4.6H123.303V20H121.015V8.34H120.971L119.211 20H117.187L115.427 8.34H115.383V20H113.271V4.6Z" fill="#19725D"/>
</svg>
