<svg width="104" height="101" viewBox="0 0 104 101" fill="none" xmlns="http://www.w3.org/2000/svg">
<path d="M80.95 55.5V90.5H10.95V20.5H36.05C36.3 16.95 37.15 13.6 38.45 10.5H10.95C5.44995 10.5 0.949951 15 0.949951 20.5V90.5C0.949951 96 5.44995 100.5 10.95 100.5H80.95C86.45 100.5 90.95 96 90.95 90.5V65.5L80.95 55.5ZM73.45 80.5H18.45L32.2 62.85L42 74.65L55.75 56.95L73.45 80.5ZM87.45 34.95C89.65 31.45 90.95 27.4 90.95 23C90.95 10.55 80.9 0.5 68.45 0.5C56 0.5 45.95 10.55 45.95 23C45.95 35.45 55.9999 45.5 68.3999 45.5C72.7999 45.5 76.8999 44.2 80.3499 42L95.95 57.6L103.05 50.5L87.45 34.95ZM68.45 35.5C65.1347 35.5 61.9553 34.183 59.6111 31.8388C57.2669 29.4946 55.95 26.3152 55.95 23C55.95 19.6848 57.2669 16.5054 59.6111 14.1612C61.9553 11.817 65.1347 10.5 68.45 10.5C71.7652 10.5 74.9446 11.817 77.2888 14.1612C79.633 16.5054 80.95 19.6848 80.95 23C80.95 26.3152 79.633 29.4946 77.2888 31.8388C74.9446 34.183 71.7652 35.5 68.45 35.5Z" fill="#292524"/>
</svg>
